P3
# 8-bit ppm - RGB
38 36
255
255 255 255 252 252 252 251 251 251 255 255 255 255 255 255 255 255 255 249 249 249 249
249 249 255 255 255 249 249 249 255 255 255 250 250 250 255 255 255 250 250 250 250 250
250 254 255 255 251 255 255 249 251 251 253 249 249 255 248 248 255 234 234 255 242 242
255 245 245 255 246 246 255 253 253 255 255 255 255 255 255 252 255 255 249 255 255 249
255 255 254 255 255 255 252 252 255 248 248 255 251 251 254 247 247 252 254 254 252 255
255 251 255 255
242 242 242 255 255 255 241 241 241 255 255 255 255 255 255 250 250 250 255 255 255 255
255 255 255 255 255 255 255 255 255 255 255 248 248 248 233 233 233 255 255 255 250 250
250 238 239 239 250 255 255 250 255 255 255 253 253 255 250 250 255 239 239 255 244 244
255 249 249 255 251 251 255 255 255 255 255 255 252 255 255 251 255 255 249 255 255 251
255 255 255 254 254 255 253 253 255 251 251 255 253 253 255 251 251 255 255 255 254 254
254 252 255 255
255 255 255 237 237 237   4   4   4   0   0   0   0   0   0   0   0   0  12  12  12   0
  0   0   0   0   0   0   0   0   0   0   0   4   4   4  20  20  20 236 236 236 252 252
252 254 255 255 248 255 255 247 255 255 254 255 255 253 254 254 251 255 255 250 255 255
251 255 255 251 255 255 246 255 255 244 255 255 242 255 255 244 255 255 249 253 253 251
252 252 252 250 250 249 252 252 245 255 255 245 255 255 252 255 255 254 252 252 255 253
253 255 253 253
255 255 255 255 255 255   0   0   0   5   5   5  10  10  10   3   3   3   7   7   7   0
  0   0   0   0   0   0   0   0   0   0   0   0   0   0   0   0   0 255 255 255 255 255
255 254 255 255 251 255 255 251 255 255 249 254 254 239 253 253 231 255 255 224 255 255
226 255 255 221 255 255 230 255 255 228 255 255 226 255 255 230 255 255 241 255 255 245
255 255 241 255 255 233 255 255 218 255 255 213 255 255 247 255 255 249 243 243 254 247
247 255 248 248
253 253 253 255 255 255   8   8   8   0   0   0   0   0   0   0   0   0   0   0   0  17
 17  17   5   5   5   0   0   0  15  15  15   4   4   4   2   2   2 255 255 255 255 255
255 243 244 244 250 252 252 251 255 255 251 255 255 235 255 255 203 255 255 191 255 255
196 255 255 199 255 255 198 255 255 197 255 255 193 255 255 198 255 255 217 255 255 221
255 255 211 255 255 200 255 255 189 255 255 197 255 255 238 255 255 255 251 251 255 251
251 255 245 245
255 255 255 255 255 255   2   2   2   0   0   0  12  12  12  15  15  15   0   0   0   0
  0   0   4   4   4   0   0   0   0   0   0   0   0   0   0   0   0 248 248 248 255 255
255 255 255 255 255 255 255 255 255 255 252 255 255 213 249 249  85 183 183  42 169 169
 43 164 164  51 167 167  51 164 164  48 166 166  40 170 170  47 167 167  69 156 156  73
154 154  58 162 162  47 168 168  38 171 171  69 171 171 205 236 236 245 233 233 255 248
248 255 248 248
254 254 254 255 255 255   4   4   4   0   0   0   0   0   0   0   0   0   0   0   0   3
  3   3   0   0   0   3   3   3   0   0   0   6   6   6   9   9   9 252 252 252 254 254
254 254 250 250 254 244 244 255 249 249 254 252 252 218 255 255  47 169 169  15 175 175
 18 174 174  24 179 179  22 176 176  16 179 179   5 185 185  12 182 182  37 170 170  39
169 169  19 180 180  11 185 185  14 184 184  58 183 183 227 255 255 255 248 248 255 247
247 255 244 244
253 253 253 255 255 255   0   0   0   0   0   0  12  12  12   0   0   0  11  11  11   0
  0   0   0   0   0   8   8   8   0   0   0   3   3   3   1   1   1 255 255 255 255 255
255 255 253 253 255 250 250 255 249 249 249 246 246 219 255 255  37 172 172  16 194 194
 11 186 186   4 177 177   4 178 178   0 181 181   0 188 188   0 186 186  18 173 173  19
173 173   0 185 185   0 190 190   0 181 181  41 177 177 223 255 255 255 248 248 255 246
246 255 237 237
255 255 255 255 255 255   0   0   0   4   4   4   2   2   2   0   0   0   0   0   0   0
  0   0   0   0   0   2   2   2   0   0   0   9   9   9   0   0   0 255 255 255 255 255
255 255 252 252 255 250 250 255 249 249 249 246 246 219 255 255  37 172 172  16 194 194
 11 186 186   4 177 177   4 178 178   0 181 181   0 188 188   0 186 186  18 173 173  19
173 173   0 185 185   0 190 190   0 181 181  41 177 177 223 255 255 255 248 248 255 246
246 255 237 237
253 253 253 255 255 255   0   0   0   4   4   4   0   0   0   0   0   0   7   7   7   7
  7   7   4   4   4   0   0   0   8   8   8   6   6   6   9   9   9 244 244 244 255 255
255 255 254 254 254 244 244 255 249 249 254 252 252 218 255 255  47 169 169  15 175 175
 18 174 174  24 179 179  22 176 176  16 179 179   5 185 185  12 182 182  37 170 170  39
169 169  19 180 180  11 185 185  14 184 184  58 183 183 227 255 255 255 248 248 255 247
247 255 244 244
251 251 251 255 255 255   0   0   0   0   0   0   0   0   0   0   0   0   0   0   0   0
  0   0   0   0   0   0   0   0   2   2   2   0   0   0   1   1   1 250 250 250 255 255
255 255 255 255 255 255 255 255 255 255 252 255 255 213 249 249  85 183 183  42 169 169
 43 164 164  51 167 167  51 164 164  48 166 166  40 170 170  47 167 167  69 156 156  73
154 154  58 162 162  47 168 168  38 171 171  69 171 171 205 236 236 245 233 233 255 248
248 255 248 248
255 255 255 255 255 255   0   0   0   5   5   5   5   5   5   9   9   9   1   1   1   0
  0   0   2   2   2  10  10  10   0   0   0   0   0   0   0   0   0 255 255 255 252 252
252 243 244 244 250 252 252 251 255 255 251 255 255 235 255 255 203 255 255 191 255 255
196 255 255 199 255 255 198 255 255 197 255 255 193 255 255 198 255 255 217 255 255 221
255 255 211 255 255 200 255 255 189 255 255 197 255 255 238 255 255 255 251 251 255 251
251 255 245 245
250 250 250 236 236 236  11  11  11   0   0   0   0   0   0   0   0   0   2   2   2  14
 14  14   0   0   0   0   0   0   0   0   0   0   0   0  15  15  15 240 240 240 255 255
255 254 255 255 251 255 255 251 255 255 249 254 254 239 253 253 231 255 255 224 255 255
226 255 255 221 255 255 230 255 255 228 255 255 226 255 255 230 255 255 241 255 255 245
255 255 241 255 255 233 255 255 218 255 255 213 255 255 247 255 255 249 243 243 254 247
247 255 248 248
249 249 249 255 255 255 229 229 229 255 255 255 255 255 255 255 255 255 246 246 246 246
246 246 255 255 255 245 245 245 255 255 255 255 255 255 247 247 247 255 255 255 246 246
246 234 236 236 248 255 255 247 255 255 254 255 255 253 254 254 251 255 255 250 255 255
251 255 255 251 255 255 246 255 255 244 255 255 242 255 255 244 255 255 249 253 253 251
252 252 252 250 250 249 252 252 245 255 255 245 255 255 252 255 255 254 252 252 255 253
253 255 253 253
247 247 247 255 255 255 253 253 253 255 255 255 251 251 251 251 251 251 251 251 251 255
255 255 255 255 255 246 246 246 255 255 255 246 246 246 255 255 255 234 234 234 255 255
255 254 255 255 250 255 255 250 255 255 255 253 253 255 250 250 255 239 239 255 244 244
255 249 249 255 251 251 255 255 255 255 255 255 252 255 255 251 255 255 249 255 255 251
255 255 255 254 254 255 253 253 255 251 251 255 253 253 255 251 251 255 255 255 254 254
254 252 255 255
254 255 255 242 243 243 255 255 255 253 252 252 255 254 254 255 255 255 252 255 255 251
255 255 247 252 252 252 255 255 250 251 251 255 255 255 255 255 255 251 251 251 252 255
255 233 237 237 254 254 254 253 249 249 255 247 247 255 247 247 255 235 235 255 244 244
255 246 246 255 247 247 255 255 255 255 255 255 252 255 255 249 255 255 248 255 255 249
255 255 255 254 254 255 253 253 255 249 249 255 252 252 251 247 247 252 253 253 254 254
254 252 255 255
244 251 251 252 255 255 254 252 252 255 253 253 255 252 252 248 249 249 247 255 255 242
255 255 242 255 255 245 255 255 252 255 255 255 253 253 254 253 253 253 255 255 248 255
255 251 255 255 255 250 250 255 241 241 255 246 246 255 239 239 255 232 232 255 246 246
255 249 249 255 253 253 251 255 255 245 255 255 242 255 255 242 255 255 245 255 255 249
255 255 255 254 254 255 253 253 254 255 255 241 244 244 254 255 255 244 243 243 255 253
253 251 249 249
248 255 255 252 255 255 255 255 255 255 255 255 255 250 250 253 248 248 247 255 255 241
255 255 234 250 250 243 251 251 253 249 249 255 248 248 255 251 251 255 255 255 248 255
255 247 255 255 255 252 252 250 236 236 255 247 247 255 248 248 255 249 249 255 250 250
248 244 244 248 250 250 248 255 255 244 255 255 242 255 255 244 255 255 248 255 255 252
255 255 255 253 253 255 253 253 247 254 254 242 252 252 251 255 255 252 253 253 255 254
254 255 253 253
242 246 246 255 255 255 255 247 247 255 250 250 255 249 249 255 246 246 255 255 255 252
255 255 252 252 252 255 249 249 255 248 248 255 249 249 255 252 252 255 255 255 251 255
255 244 255 255 245 255 255 246 255 255 248 255 255 247 255 255 249 255 255 249 255 255
243 252 252 249 255 255 246 255 255 246 255 255 246 255 255 249 253 253 252 251 251 255
249 249 255 247 247 255 249 249 250 255 255 242 252 252 249 254 254 247 251 251 251 252
252 255 255 255
254 255 255 255 255 255 255 254 254 255 255 255 255 255 255 255 255 255 255 255 255 255
255 255 255 252 252 255 254 254 255 251 251 255 247 247 255 250 250 255 255 255 255 255
255 244 255 255 236 255 255 240 255 255 240 255 255 230 253 253 234 255 255 242 255 255
245 255 255 249 255 255 254 255 255 255 255 255 255 253 253 255 253 253 255 252 252 255
251 251 255 251 251 255 252 252 255 254 254 253 254 254 255 255 255 254 255 255 254 255
255 244 246 246
250 249 249 255 253 253 241 232 232 243 231 231 250 233 233 241 228 228 239 235 235 233
235 235 239 239 239 245 240 240 250 237 237 247 232 232 253 239 239 255 253 253 255 255
255 250 255 255 246 255 255 244 255 255 239 255 255 237 255 255 240 255 255 242 255 255
244 255 255 240 243 243 255 254 254 255 251 251 255 250 250 255 250 250 255 252 252 255
254 254 252 255 255 255 255 255 255 242 242 253 236 236 255 252 252 251 248 248 255 255
255 236 241 241
255 254 254 255 255 255 247 239 239 248 237 237 255 242 242 254 239 239 252 247 247 246
245 245 242 239 239 248 242 242 249 237 237 243 228 228 250 236 236 255 253 253 255 255
255 254 255 255 254 255 255 245 251 251 243 254 254 245 255 255 243 255 255 237 247 247
255 255 255 255 251 251 255 245 245 255 241 241 255 239 239 255 240 240 255 244 244 255
247 247 255 252 252 255 250 250 255 243 243 255 242 242 255 246 246 255 244 244 255 255
255 246 249 249
254 250 250 255 251 251 238 231 231 245 232 232 255 241 241 255 238 238 255 245 245 254
243 243 255 246 246 255 248 248 255 243 243 253 233 233 255 239 239 255 255 255 255 255
255 254 249 249 255 248 248 255 246 246 255 253 253 255 254 254 245 240 240 254 239 239
255 246 246 255 214 214 255 230 230 255 225 225 255 222 222 255 223 223 255 228 228 255
233 233 255 238 238 255 238 238 255 223 223 255 229 229 255 216 216 255 245 245 255 252
252 255 255 255
255 253 253 255 255 255 242 238 238 249 238 238 255 245 245 255 238 238 255 241 241 255
235 235 254 233 233 255 239 239 255 236 236 251 230 230 255 238 238 255 255 255 255 255
255 250 249 249 255 250 250 255 250 250 255 249 249 255 253 253 255 246 246 255 247 247
255 223 223 161  79  79 170  54  54 187  47  47 197  42  42 198  42  42 191  46  46 181
 51  51 170  57  57 169  58  58 177  52  52 180  65  65 164  78  78 255 228 228 255 247
247 255 254 254
252 255 255 255 255 255 237 239 239 252 247 247 255 237 237 255 239 239 255 235 235 255
237 237 255 236 236 255 234 234 255 237 237 255 239 239 243 230 230 255 255 255 255 255
255 248 255 255 248 255 255 244 253 253 247 255 255 248 255 255 255 254 254 255 248 248
255 237 237 156  55  55 188  46  46 209  37  37 225  30  30 232  27  27 227  30  30 222
 33  33 212  39  39 206  40  40 205  41  41 192  45  45 169  59  59 255 233 233 255 246
246 255 250 250
251 255 255 255 255 255 235 241 241 251 248 248 255 238 238 255 240 240 255 235 235 255
236 236 255 237 237 255 234 234 255 238 238 255 239 239 242 231 231 255 255 255 254 255
255 247 255 255 243 255 255 245 255 255 247 255 255 246 251 251 255 248 248 255 239 239
255 233 233 178  65  65 200  46  46 223  35  35 240  27  27 247  24  24 247  25  25 243
 28  28 236  32  32 228  35  35 223  42  42 199  43  43 164  44  44 255 230 230 255 239
239 255 250 250
249 255 255 255 255 255 234 240 240 249 248 248 253 239 239 255 241 241 255 238 238 255
239 239 255 240 240 254 237 237 255 240 240 255 240 240 242 228 228 255 255 255 254 255
255 248 255 255 253 253 253 255 252 252 255 252 252 255 241 241 255 245 245 255 238 238
255 219 219 162  42  42 197  41  41 217  32  32 231  26  26 238  23  23 239  23  23 238
 24  24 232  27  27 222  31  31 206  35  35 189  43  43 161  46  46 255 231 231 255 243
243 255 250 250
251 254 254 255 255 255 234 240 240 249 248 248 253 239 239 255 242 242 252 240 240 253
242 242 254 243 243 251 240 240 255 241 241 255 239 239 242 227 227 255 255 255 254 255
255 248 255 255 251 255 255 254 254 254 253 251 251 255 247 247 255 247 247 255 242 242
255 227 227 180  91  91 172  57  57 186  51  51 196  47  47 201  44  44 203  44  44 201
 45  45 199  47  47 193  48  48 183  48  48 180  63  63 169  76  76 255 223 223 255 239
239 255 250 250
254 255 255 255 255 255 237 239 239 249 249 249 253 239 239 255 242 242 251 240 240 252
243 243 253 245 245 250 242 242 254 242 242 255 239 239 242 227 227 255 255 255 255 255
255 245 255 255 237 255 255 235 255 255 238 255 255 242 255 255 243 254 254 245 247 247
255 253 253 243 223 223 255 246 246 255 244 244 255 242 242 255 241 241 255 241 241 255
242 242 255 242 242 255 240 240 255 232 232 255 229 229 255 217 217 255 242 242 255 248
248 255 243 243
255 254 254 255 255 255 238 239 239 251 248 248 253 238 238 255 241 241 251 240 240 250
244 244 251 246 246 250 242 242 254 242 242 255 239 239 243 226 226 255 255 255 255 255
255 247 255 255 237 255 255 234 255 255 236 255 255 241 255 255 244 255 255 239 249 249
251 255 255 252 255 255 252 255 255 252 255 255 252 255 255 252 255 255 254 255 255 254
255 255 255 255 255 255 255 255 255 250 250 255 248 248 255 249 249 255 243 243 255 250
250 255 241 241
255 251 251 255 255 255 241 237 237 252 246 246 254 236 236 255 240 240 251 240 240 250
244 244 250 247 247 250 242 242 254 241 241 255 237 237 244 224 224 255 255 255 255 255
255 254 255 255 249 255 255 251 255 255 248 247 247 255 253 253 255 251 251 255 250 250
255 248 248 254 244 244 255 252 252 253 253 253 252 253 253 252 253 253 253 252 252 255
250 250 255 248 248 254 251 251 235 252 252 241 255 255 248 255 255 253 255 255 255 254
254 255 249 249
255 253 253 255 255 255 237 233 233 247 241 241 246 234 234 251 238 238 244 239 239 245
242 242 246 244 244 243 241 241 249 238 238 249 235 235 239 223 223 255 255 255 255 255
255 255 255 255 251 250 250 255 254 254 255 251 251 255 247 247 255 245 245 255 244 244
255 247 247 255 250 250 255 253 253 255 254 254 254 254 254 254 254 254 255 252 252 255
250 250 255 249 249 255 253 253 236 255 255 233 255 255 232 254 254 247 255 255 255 254
254 255 254 254
255 255 255 251 251 251 240 242 242 233 235 235 232 233 233 235 235 235 234 236 236 232
235 235 232 235 235 230 235 235 233 233 233 234 234 234 240 238 238 248 246 246 255 255
255 255 255 255 255 255 255 255 255 255 255 254 254 255 253 253 255 253 253 255 253 253
255 253 253 255 254 254 255 254 254 255 255 255 255 255 255 255 254 254 255 254 254 255
254 254 255 253 253 255 254 254 249 255 255 248 255 255 251 255 255 252 255 255 255 255
255 255 255 255
255 255 255 255 255 255 255 255 255 255 255 255 255 255 255 255 255 255 255 255 255 255
255 255 255 255 255 255 255 255 255 255 255 255 255 255 255 255 255 255 255 255 255 255
255 255 255 255 255 255 255 255 255 255 255 255 255 255 255 255 255 255 255 255 255 255
255 255 255 255 255 255 255 255 255 255 255 255 255 255 255 255 255 255 255 255 255 255
255 255 255 255 255 255 255 255 255 255 255 255 255 255 255 255 255 255 255 255 255 255
255 255 255 255
255 255 255 254 254 254 254 253 253 255 255 255 255 255 255 255 255 255 255 255 255 255
255 255 255 255 255 255 255 255 255 255 255 255 255 255 255 255 255 255 253 253 255 251
251 253 250 250 255 255 255 255 255 255 255 255 255 255 255 255 255 255 255 255 255 255
255 255 255 255 255 255 255 255 255 255 255 255 255 255 255 255 255 255 255 255 255 255
255 255 255 255 255 255 255 255 255 255 255 255 255 255 255 255 255 255 255 255 255 255
255 255 255 255
255 253 253 255 254 254 255 254 254 255 255 255 255 254 254 255 255 255 255 252 252 255
249 249 255 248 248 255 250 250 255 250 250 255 254 254 255 252 252 255 252 252 255 250
250 255 251 251 255 254 254 255 255 255 255 255 255 255 255 255 255 255 255 255 255 255
255 255 255 255 255 255 255 255 255 255 255 255 255 255 255 255 255 255 255 255 255 255
255 255 255 255 255 255 255 255 255 255 255 255 255 255 255 255 255 255 255 255 255 255
255 255 255 255
